<?xml version='1.0' encoding='UTF-8'?>
<svg xmlns:inkscape="http://www.inkscape.org/namespaces/inkscape" xmlns:sodipodi="http://sodipodi.sourceforge.net/DTD/sodipodi-0.dtd" xmlns="http://www.w3.org/2000/svg" xmlns:svg="http://www.w3.org/2000/svg" xmlns:rdf="http://www.w3.org/1999/02/22-rdf-syntax-ns#" xmlns:cc="http://creativecommons.org/ns#" xmlns:dc="http://purl.org/dc/elements/1.1/" width="64" height="64" version="1.1" viewBox="0 0 16.933 16.933" id="svg7" sodipodi:docname="easytag.svg" inkscape:version="1.4.2 (ebf0e940d0, 2025-05-08)">
  <sodipodi:namedview id="namedview7" pagecolor="#9c4444" bordercolor="#000000" borderopacity="0.25" inkscape:showpageshadow="2" inkscape:pageopacity="0.0" inkscape:pagecheckerboard="0" inkscape:deskcolor="#d1d1d1" inkscape:zoom="4.3531261" inkscape:cx="36.295755" inkscape:cy="40.430715" inkscape:window-width="2560" inkscape:window-height="1376" inkscape:window-x="0" inkscape:window-y="0" inkscape:window-maximized="1" inkscape:current-layer="svg7" showgrid="false"/>
  <defs id="defs2">
    <filter style="color-interpolation-filters:sRGB;" inkscape:label="Blur" id="filter1283" x="-0.082344266" y="-0.082344266" width="1.1646885" height="1.1646885">
      <feGaussianBlur stdDeviation="0.5 0.5" result="blur" id="feGaussianBlur1281"/>
    </filter>
    <filter style="color-interpolation-filters:sRGB;" inkscape:label="Blur" id="filter1694" x="-0.94955398" y="-0.2118907" width="2.899108" height="1.4237814">
      <feGaussianBlur stdDeviation="0.2 0.2" result="blur" id="feGaussianBlur1692"/>
    </filter>
    <style id="current-color-scheme" type="text/css">.ColorScheme-Text {color:#d8dee9} .ColorScheme-Highlight {color:#3b4252}</style>
    <inkscape:path-effect effect="offset" id="path-effect3-3" is_visible="true" lpeversion="1.3" linejoin_type="miter" unit="mm" offset="-0.2" miter_limit="4" attempt_force_join="false" update_on_knot_move="true"/>
    <inkscape:path-effect effect="offset" id="path-effect1-6" is_visible="true" lpeversion="1.3" linejoin_type="miter" unit="mm" offset="-0.35" miter_limit="4" attempt_force_join="false" update_on_knot_move="true"/>
    <inkscape:path-effect effect="offset" id="path-effect2-7" is_visible="true" lpeversion="1.3" linejoin_type="miter" unit="mm" offset="-0.3" miter_limit="4" attempt_force_join="false" update_on_knot_move="true"/>
  </defs>
  <metadata id="metadata2">
    <rdf:RDF>
      <cc:Work rdf:about="">
        <dc:format>image/svg+xml</dc:format>
        <dc:type rdf:resource="http://purl.org/dc/dcmitype/StillImage"/>
      </cc:Work>
    </rdf:RDF>
  </metadata>
  <g transform="matrix(0.94290717,0,0,0.96034544,-38.176344,-728.80781)" id="g25-7" style="">
    <path fill="currentColor" class="ColorScheme-Text" d="m 50.549107,762.06696 6.46875,6.46875 c 0.469023,0.46901 0.375321,1.03093 0,1.40625 l -4.21875,4.25 c -0.359376,0.35941 -1.015625,0.39067 -1.40625,0.0312 l -0.75,-0.75 4.21875,-4.25 c 0.375321,-0.37532 0.469023,-0.93724 0,-1.40625 l -5.71875,-5.71875 z" id="path24-5" style="color:none"/>
    <path fill="currentColor" class="ColorScheme-Text" d="m 47.254912,760.95804 6.46875,6.46875 c 0.469023,0.46901 0.375321,1.03093 0,1.40625 l -4.21875,4.25 c -0.359376,0.35941 -1.015625,0.39062 -1.40625,0.0312 l -6.5,-6.5 0.15625,-4.9375 c -4e-6,-0.17009 0.425825,-0.5625 0.59375,-0.5625 l 4.90625,-0.15625 z m -3.06093,1.61049 c -0.543655,0 -1,0.4251 -1,0.96875 0,0.54366 0.456345,1 1,1 0.543655,0 0.96875,-0.45634 0.96875,-1 0,-0.54365 -0.425095,-0.96875 -0.96875,-0.96875 z" id="path25-9" style="color:none"/>
  </g>
</svg>
